<svg xmlns="http://www.w3.org/2000/svg" width="680" height="460" viewBox="0 0 680 460" role="img" font-family="-apple-system, Segoe UI, Roboto, Helvetica, Arial, sans-serif">
<title>The four servos of a 4-DOF robotic arm</title>
<desc>Side view of a robotic arm. Each joint holds one servo: the base rotates the arm left and right, the shoulder lifts it up and down, the elbow bends it in and out, and the gripper opens and closes the claw.</desc>

<rect x="0" y="0" width="680" height="460" rx="16" fill="#F7F6F2"/>

<line x1="150" y1="419" x2="300" y2="419" stroke="#B4B2A9" stroke-width="1" stroke-dasharray="4 4"/>

<line x1="210" y1="348" x2="290" y2="250" stroke="#8C8B83" stroke-width="10" stroke-linecap="round"/>
<line x1="290" y1="250" x2="390" y2="175" stroke="#8C8B83" stroke-width="10" stroke-linecap="round"/>

<line x1="396" y1="166" x2="424" y2="150" stroke="#8C8B83" stroke-width="6" stroke-linecap="round"/>
<line x1="398" y1="184" x2="428" y2="172" stroke="#8C8B83" stroke-width="6" stroke-linecap="round"/>

<rect x="160" y="405" width="100" height="14" rx="4" fill="#E2E0D8" stroke="#B4B2A9" stroke-width="0.8"/>
<rect x="190" y="352" width="40" height="55" rx="6" fill="#E2E0D8" stroke="#B4B2A9" stroke-width="0.8"/>

<circle cx="210" cy="392" r="15" fill="#F0997B" stroke="#B8501F" stroke-width="1"/>
<text x="210" y="392" text-anchor="middle" dominant-baseline="central" fill="#4A1B0C" font-size="14" font-weight="600">1</text>
<circle cx="210" cy="348" r="15" fill="#F0997B" stroke="#B8501F" stroke-width="1"/>
<text x="210" y="348" text-anchor="middle" dominant-baseline="central" fill="#4A1B0C" font-size="14" font-weight="600">2</text>
<circle cx="290" cy="250" r="15" fill="#F0997B" stroke="#B8501F" stroke-width="1"/>
<text x="290" y="250" text-anchor="middle" dominant-baseline="central" fill="#4A1B0C" font-size="14" font-weight="600">3</text>
<circle cx="390" cy="175" r="15" fill="#F0997B" stroke="#B8501F" stroke-width="1"/>
<text x="390" y="175" text-anchor="middle" dominant-baseline="central" fill="#4A1B0C" font-size="14" font-weight="600">4</text>

<circle cx="225" cy="392" r="2" fill="#9C9A92"/>
<line x1="225" y1="392" x2="474" y2="392" stroke="#B4B2A9" stroke-width="0.8" stroke-dasharray="4 3"/>
<text x="482" y="389" fill="#2C2C2A" font-size="15" font-weight="600">1. Base</text>
<text x="482" y="407" fill="#5F5E5A" font-size="13">Rotates left &amp; right</text>

<circle cx="225" cy="348" r="2" fill="#9C9A92"/>
<line x1="225" y1="348" x2="474" y2="322" stroke="#B4B2A9" stroke-width="0.8" stroke-dasharray="4 3"/>
<text x="482" y="319" fill="#2C2C2A" font-size="15" font-weight="600">2. Shoulder</text>
<text x="482" y="337" fill="#5F5E5A" font-size="13">Lifts up &amp; down</text>

<circle cx="305" cy="250" r="2" fill="#9C9A92"/>
<line x1="305" y1="250" x2="474" y2="228" stroke="#B4B2A9" stroke-width="0.8" stroke-dasharray="4 3"/>
<text x="482" y="225" fill="#2C2C2A" font-size="15" font-weight="600">3. Elbow</text>
<text x="482" y="243" fill="#5F5E5A" font-size="13">Bends in &amp; out</text>

<circle cx="405" cy="175" r="2" fill="#9C9A92"/>
<line x1="405" y1="175" x2="474" y2="150" stroke="#B4B2A9" stroke-width="0.8" stroke-dasharray="4 3"/>
<text x="482" y="147" fill="#2C2C2A" font-size="15" font-weight="600">4. Gripper</text>
<text x="482" y="165" fill="#5F5E5A" font-size="13">Opens &amp; closes claw</text>
</svg>
